# xmcd
#
# Track frame offsets:
#	150
#	22192
#	46189
#	62595
#	74579
#	96246
#	109483
#	127714
#
# Disc length: 2008 seconds
#
# Revision: 1
# Processed by: cddbd v1.5.2PL0 Copyright (c) Steve Scherf et al.
# Submitted via: audiograbber 1.83.01
#
DISCID=6e07d608
DTITLE=Lambchop - Democracy
DYEAR=2012
DGENRE=Alternative
TTITLE0=Kind Of
TTITLE1=2b2
TTITLE2=Gone Tomorrow
TTITLE3=Never My Love
TTITLE4=Mr. Met
TTITLE5=The Good Life (Is Wasted)
TTITLE6=Nice Without Mercy
TTITLE7=2b2
EXTD=
EXTT0=
EXTT1=
EXTT2=
EXTT3=
EXTT4=
EXTT5=
EXTT6=
EXTT7=
PLAYORDER=
